<svg id="Layer_1" data-name="Layer 1" xmlns="http://www.w3.org/2000/svg" viewBox="0 0 756.02 155.1"><defs><style>.cls-1,.cls-3{fill:#6aa84f;}.cls-1{stroke:#6aa84f;}.cls-1,.cls-2{stroke-width:3px;}.cls-2{fill:#999;stroke:#999;}</style></defs><title>logo</title><path class="cls-1" d="M128.79,540q-6.06-7.95-6-25.65t6-25.64q6-7.95,20-8T169,488.47l-2.46,2.24q-4.93-6.6-17.7-6.61a32.33,32.33,0,0,0-9.4,1.18,16.84,16.84,0,0,0-7,4.37q-3.19,3.19-4.76,9.29a76.31,76.31,0,0,0,0,30.8q1.56,6.1,4.76,9.3a16.94,16.94,0,0,0,7,4.37,32.36,32.36,0,0,0,9.4,1.17q12.78,0,17.7-6.6l2.46,2.24q-6.15,7.72-20.16,7.72T128.79,540Z" transform="translate(-121.24 -394.68)"/><path class="cls-1" d="M213,514.23l15.23,32.59h-3.7l-15.67-33.6,2-1c1.15-.56,2-1,2.4-1.23s1.2-.73,2.24-1.4a10.1,10.1,0,0,0,2.36-2c.52-.63,1.1-1.38,1.73-2.24a8.92,8.92,0,0,0,1.4-2.91,13.17,13.17,0,0,0,.45-3.53q0-7-6.72-10.42T198,485.22h-9v61.6h-3.36v-65H198q13.22,0,20,4.6A14.38,14.38,0,0,1,224.77,499a13.49,13.49,0,0,1-3.47,9.13A23.54,23.54,0,0,1,213,514.23Z" transform="translate(-121.24 -394.68)"/><path class="cls-1" d="M249.41,543.46h36.51l-23-54.09-24.42,57.45H235l28-66.08,28,66.08H249.41Z" transform="translate(-121.24 -394.68)"/><path class="cls-1" d="M320.86,480.52q13.89,0,19.72,6.16l-2.24,2.46q-5.38-5.25-17-5.26-17.47,0-17.47,13.89a10.17,10.17,0,0,0,4.26,8.57,30.62,30.62,0,0,0,10.38,4.87q6.12,1.7,12.21,3.53A25.24,25.24,0,0,1,341,520.67a14.16,14.16,0,0,1,4.26,10.7,14.44,14.44,0,0,1-6.38,12.32q-6.39,4.59-18.48,4.59a44.29,44.29,0,0,1-11.71-1.57q-5.76-1.56-8.57-4.59l2.24-2.46q5.72,5.26,17.59,5.26,10.86,0,16.41-4t5.54-9.41a11.14,11.14,0,0,0-4.26-9.07,28.35,28.35,0,0,0-10.4-5.22q-6.15-1.76-12.21-3.59a26.08,26.08,0,0,1-10.31-5.75,13.34,13.34,0,0,1-4.26-10.31q0-8.61,5.77-12.82T320.86,480.52Z" transform="translate(-121.24 -394.68)"/><path class="cls-1" d="M402,546.82h-3.36V514.34H365v32.48h-3.36v-65H365V511h33.6V481.86H402Z" transform="translate(-121.24 -394.68)"/><path class="cls-2" d="M451.45,509.19l-1.68-2.91,6.28-3.58q7.72-4.26,7.72-13.56,0-17.36-26.43-17.36H427v75h-3.36v-78.4h13.66q14.79,0,22.29,5.44t7.5,15.28q0,11.21-9.4,16.47Z" transform="translate(-121.24 -394.68)"/><path class="cls-2" d="M519.55,543.46v3.36H482.14v-65h3.36v61.6Z" transform="translate(-121.24 -394.68)"/><path class="cls-2" d="M538.36,543.46h36.52l-23-54.09L527.5,546.82h-3.58l28-66.08,28,66.08H538.36Z" transform="translate(-121.24 -394.68)"/><path class="cls-2" d="M592.68,546.82v-65H596l36.51,58.8v-58.8h3.37v65h-3.37L596,487.91v58.91Z" transform="translate(-121.24 -394.68)"/><path class="cls-2" d="M657.19,546.82v-65h3.36l36.51,58.8v-58.8h3.36v65h-3.36l-36.51-58.91v58.91Z" transform="translate(-121.24 -394.68)"/><path class="cls-2" d="M765.16,540.22Q759,547.94,745,547.94t-20-8q-6-7.95-6.05-25.65T725,488.7q6-7.95,20-8,16.25,0,22.06,10.64l-27.44,23h-5.26l28.34-23.63q-4.94-6.6-17.7-6.61a32.45,32.45,0,0,0-9.41,1.18,16.9,16.9,0,0,0-7,4.37q-3.2,3.19-4.76,9.29a76.31,76.31,0,0,0,0,30.8q1.57,6.1,4.76,9.3a17,17,0,0,0,7,4.37,32.48,32.48,0,0,0,9.41,1.17q12.76,0,17.7-6.6Z" transform="translate(-121.24 -394.68)"/><path class="cls-2" d="M810.41,514.23l15.23,32.59h-3.7l-15.68-33.6,2-1c1.16-.56,2-1,2.41-1.23s1.19-.73,2.24-1.4a9.82,9.82,0,0,0,2.35-2c.52-.63,1.1-1.38,1.74-2.24a8.92,8.92,0,0,0,1.4-2.91,13.17,13.17,0,0,0,.45-3.53q0-7-6.72-10.42t-16.69-3.36h-9v61.6h-3.36v-65H795.4q13.22,0,20,4.6A14.38,14.38,0,0,1,822.17,499a13.45,13.45,0,0,1-3.48,9.13A23.42,23.42,0,0,1,810.41,514.23Z" transform="translate(-121.24 -394.68)"/><path class="cls-3" d="M816.21,474.94a22.07,22.07,0,0,0,21.68-23.53c-.65-10.76-10-20.53-21.83-20.49-12.35,0-21.73,11-21.65,22.08C794.5,464.43,803.87,474.86,816.21,474.94Z" transform="translate(-121.24 -394.68)"/><path class="cls-3" d="M830.08,432.46l4.08,3.38,4.52-5.34L851.77,415a.86.86,0,0,1,1.17-.34,10.32,10.32,0,1,0,4.89-19.89,9.73,9.73,0,0,0-9.46,4.32,9.84,9.84,0,0,0-.63,10.82,1.4,1.4,0,0,1-.24,1.85q-8.47,10-16.9,20.06Z" transform="translate(-121.24 -394.68)"/><path class="cls-3" d="M794.58,465l-2.08-5-18.07,7.49-.09.05c-1.67,1.09-2.86.79-4.34-.72-2.1-2.14-5-2.6-7.94-2.18a10.67,10.67,0,0,0-8.31,7.51,10.08,10.08,0,0,0,2.21,9.57,10,10,0,0,0,13.16,1.88c3.51-2.24,4.84-5.51,4.78-9.55,0-.28.43-.71.75-.84,5.83-2.44,11.68-4.84,17.53-7.25Z" transform="translate(-121.24 -394.68)"/><path class="cls-3" d="M799.13,435l4.21-3.21L793.67,419c0-.05-.09-.1-.13-.16-1.15-1.51-1.12-1.49-.23-3.14a10.41,10.41,0,0,0-3-13,10.18,10.18,0,0,0-13.9,1.55,10.71,10.71,0,0,0-.69,12.52,10.38,10.38,0,0,0,11.6,4.06,1,1,0,0,1,1.33.48q5,6.49,9.94,12.95Z" transform="translate(-121.24 -394.68)"/><path class="cls-3" d="M840.73,453.51l-.55,5.17,16.5,2.08c1,4.46,3.34,7.67,7.8,8.75a9.66,9.66,0,0,0,10.68-3.88,9.79,9.79,0,0,0,1.33-9.87,10,10,0,0,0-5.13-5.65,10.18,10.18,0,0,0-10.15.77,9.32,9.32,0,0,0-3.34,3.89,1.09,1.09,0,0,1-1.35.68c-5.15-.67-10.32-1.32-15.48-2A1.8,1.8,0,0,0,840.73,453.51Z" transform="translate(-121.24 -394.68)"/><path class="cls-3" d="M817.25,494.35c.18-5.56.37-11.05.55-16.68h-5.24c0,.64-.11,1.38-.13,2.12-.17,4.44-.34,8.88-.46,13.32a1,1,0,0,1-.89,1.19c-7.56,2.4-9,11.63-4.75,16.56a10.29,10.29,0,1,0,10.92-16.51Z" transform="translate(-121.24 -394.68)"/></svg>